# xmcd CD database file
#
# Track frame offsets:
#	150
#	16973
#	51005
#	66106
#	101353
#	125433
#	138809
#	163030
#	187594
#	221844
#	243394
#	289647
#	328325
#
# Disc length: 4521 seconds
#
# Revision: 0
# Processed by: cddbd v1.5.2PL0 Copyright (c) Steve Scherf et al.
# Submitted via: CDex 1.50
#
DISCID=b411a70d
DTITLE=Bo Diddley - Live In France 1989 (Rennes)
DYEAR=2008
DGENRE=Blues
TTITLE0=Bo Diddley (Live)
TTITLE1=I'm A Man (Live)
TTITLE2=Jeanette Jeanette (Live)
TTITLE3=I've Seen Them All (Live)
TTITLE4=I Broke The Chain (Live)
TTITLE5=Roadrunner (Live)
TTITLE6=Who Do You Love (Live)
TTITLE7=Mona (Live)
TTITLE8=Make Up Your Mind Tonight (Live)
TTITLE9=Just Like Bo Diddley Do (Live
TTITLE10=He's A Hell Of A Man (Live In Woodstock , N.Y. 1975)
TTITLE11=Can I Put My Finger In It ? (Live In Woodstock , N.Y. 1975)
TTITLE12=Bo Diddley Interview
EXTD=YEAR: 2008
EXTT0=
EXTT1=
EXTT2=
EXTT3=
EXTT4=
EXTT5=
EXTT6=
EXTT7=
EXTT8=
EXTT9=
EXTT10=
EXTT11=
EXTT12=
PLAYORDER=
